<?xml version="1.0" standalone="no"?>
<!DOCTYPE svg PUBLIC "-//W3C//DTD SVG 20010904//EN"
 "http://www.w3.org/TR/2001/REC-SVG-20010904/DTD/svg10.dtd">
<svg version="1.0" xmlns="http://www.w3.org/2000/svg"
 width="392.000000pt" height="392.000000pt" viewBox="0 0 392.000000 392.000000"
 preserveAspectRatio="xMidYMid meet">
<metadata>
Created by potrace 1.14, written by Peter Selinger 2001-2017
</metadata>
<g transform="translate(0.000000,392.000000) scale(0.100000,-0.100000)"
fill="#000000" stroke="none">
<path d="M1928 3903 c37 -13 47 -13 85 0 l42 15 -85 0 -85 0 43 -15z"/>
<path d="M235 3600 c-19 -34 -20 -53 -20 -625 0 -653 -1 -645 61 -671 26 -11
112 -14 402 -14 l369 0 7 -31 c3 -17 19 -44 35 -60 43 -43 101 -41 147 5 28
28 34 42 34 75 0 23 -7 52 -15 64 -10 16 -13 37 -9 74 l7 51 44 -32 c102 -72
226 -12 225 109 0 66 -20 97 -78 126 -56 27 -104 20 -156 -22 l-38 -30 0 245
c0 167 3 247 11 252 7 4 8 18 4 38 -4 17 -10 117 -14 221 -5 163 -9 195 -26
225 l-20 35 -3 -627 -2 -628 -470 0 -470 0 -2 628 -3 627 -20 -35z"/>
<path d="M458 3492 c-44 -20 -45 -23 -22 -162 8 -52 17 -113 20 -135 3 -22 8
-47 11 -55 3 -8 8 -44 10 -80 3 -36 9 -73 14 -82 5 -9 9 -32 9 -50 0 -19 6
-43 14 -53 14 -19 17 -19 113 -3 54 9 106 20 116 23 16 7 17 -7 17 -183 0
-153 3 -191 14 -195 23 -9 75 60 94 124 6 19 27 79 47 134 20 55 39 111 42
125 3 14 11 39 18 55 7 17 17 44 21 60 4 17 12 39 17 50 21 39 75 210 70 218
-7 12 -88 1 -190 -25 -45 -12 -85 -19 -89 -16 -3 3 2 44 10 90 9 47 16 98 16
115 l0 30 -102 11 c-199 22 -230 23 -270 4z"/>
<path d="M2751 3174 c-25 -32 -26 -43 -5 -72 17 -25 71 -31 92 -10 18 18 14
73 -6 91 -27 24 -58 21 -81 -9z"/>
<path d="M3089 3087 c-24 -18 -41 -56 -34 -76 9 -31 45 -61 71 -61 30 0 74 44
74 75 0 12 -11 34 -25 49 -26 28 -60 33 -86 13z"/>
<path d="M1383 3028 c-27 -13 -47 -59 -38 -88 24 -74 145 -53 145 26 0 49 -62
85 -107 62z"/>
<path d="M2532 3017 c-12 -13 -22 -35 -22 -50 0 -62 84 -91 128 -44 27 29 28
51 1 88 -26 37 -75 40 -107 6z"/>
<path d="M2858 2913 c-14 -2 -38 -15 -52 -28 -21 -20 -26 -33 -26 -72 1 -102
99 -148 175 -82 40 36 47 81 18 130 -14 24 -72 63 -85 58 -1 -1 -15 -4 -30 -6z"/>
<path d="M2305 2861 c-30 -9 -50 -24 -68 -51 -50 -72 25 -173 116 -156 82 15
111 118 51 176 -31 30 -67 41 -99 31z"/>
<path d="M1624 2845 c-73 -30 -97 -116 -49 -173 30 -36 66 -47 111 -32 47 16
74 54 74 105 0 50 -20 78 -70 99 -29 12 -40 12 -66 1z"/>
<path d="M3162 2757 c-27 -28 -28 -48 -4 -77 21 -26 66 -30 89 -7 34 34 5 107
-42 107 -12 0 -31 -10 -43 -23z"/>
<path d="M2554 2674 c-12 -3 -36 -20 -54 -39 -42 -43 -51 -111 -22 -165 25
-48 93 -82 145 -73 72 11 133 97 120 167 -3 14 -22 44 -42 66 -30 34 -44 41
-81 44 -25 2 -54 2 -66 0z"/>
<path d="M1922 2600 c-65 -40 -94 -138 -56 -195 25 -38 76 -65 123 -65 86 0
141 54 141 139 0 48 -3 55 -46 96 -39 39 -52 45 -87 45 -24 0 -56 -9 -75 -20z"/>
<path d="M2976 2559 c-51 -40 -26 -123 39 -123 71 0 103 80 49 123 -15 12 -34
21 -44 21 -10 0 -29 -9 -44 -21z"/>
<path d="M2256 2433 c-37 -9 -97 -54 -116 -85 -63 -104 -8 -237 112 -269 158
-42 284 152 184 284 -44 58 -117 86 -180 70z"/>
<path d="M1605 2406 c-86 -32 -140 -131 -114 -211 32 -95 130 -155 219 -133
86 22 152 121 134 201 -25 120 -131 182 -239 143z"/>
<path d="M2719 2341 c-75 -76 6 -214 106 -181 55 18 95 82 80 129 -3 11 -19
34 -35 50 -23 26 -36 31 -75 31 -38 0 -52 -5 -76 -29z"/>
<path d="M1926 2125 c-125 -48 -180 -174 -125 -290 27 -58 79 -101 147 -122
50 -16 55 -16 105 1 64 23 113 67 138 124 20 47 26 127 9 137 -5 3 -10 13 -10
22 0 26 -47 81 -93 107 -55 32 -121 40 -171 21z"/>
<path d="M1345 2043 c-52 -27 -80 -71 -80 -128 0 -63 29 -106 87 -129 82 -33
163 7 189 92 34 114 -92 219 -196 165z"/>
<path d="M2480 2041 c-47 -25 -71 -61 -77 -112 -11 -110 102 -191 197 -142
106 55 106 198 0 254 -44 24 -76 24 -120 0z"/>
<path d="M1580 1805 c-114 -51 -154 -168 -91 -267 37 -58 104 -93 161 -84 121
19 190 116 160 224 -27 102 -143 165 -230 127z"/>
<path d="M2254 1761 c-48 -9 -100 -51 -125 -99 -17 -35 -20 -55 -16 -97 7 -67
34 -105 99 -140 60 -33 117 -30 175 9 161 110 59 363 -133 327z"/>
<path d="M1081 1675 c-37 -43 -40 -79 -8 -125 43 -65 121 -68 172 -8 37 44 34
91 -9 134 -29 29 -41 34 -79 34 -39 0 -49 -5 -76 -35z"/>
<path d="M2753 1686 c-56 -26 -85 -94 -60 -143 54 -103 207 -65 207 51 0 75
-77 123 -147 92z"/>
<path d="M1912 1480 c-59 -14 -112 -80 -112 -138 0 -37 35 -90 80 -120 90 -61
222 27 207 139 -12 88 -89 140 -175 119z"/>
<path d="M1305 1451 c-84 -51 -94 -161 -21 -228 31 -28 43 -33 87 -33 40 0 60
6 84 24 92 70 81 192 -22 245 -33 17 -94 13 -128 -8z"/>
<path d="M2550 1459 c-38 -15 -78 -58 -91 -96 -15 -47 -4 -97 32 -138 73 -82
204 -47 237 64 12 37 11 46 -11 88 -33 68 -109 105 -167 82z"/>
<path d="M895 1405 c-41 -40 -28 -93 28 -114 52 -20 101 25 90 82 -11 56 -77
74 -118 32z"/>
<path d="M2965 1395 c-32 -31 -33 -77 -3 -105 37 -34 98 -19 118 30 10 23 9
33 -6 54 -33 51 -72 59 -109 21z"/>
<path d="M1596 1225 c-42 -22 -55 -44 -55 -95 -1 -48 17 -79 56 -99 90 -46
190 56 142 146 -26 49 -96 72 -143 48z"/>
<path d="M730 1190 c-39 -39 -14 -100 42 -100 53 0 79 74 36 104 -30 21 -54
20 -78 -4z"/>
<path d="M2254 1192 c-53 -42 -59 -113 -15 -161 55 -59 151 -35 181 45 13 33
0 77 -32 111 -27 29 -102 32 -134 5z"/>
<path d="M3150 1170 c-24 -24 -25 -48 -4 -78 19 -27 64 -29 87 -4 24 26 21 68
-5 86 -30 21 -54 20 -78 -4z"/>
<path d="M1028 1131 c-28 -25 -33 -36 -33 -75 0 -116 151 -153 200 -49 51 108
-78 203 -167 124z"/>
<path d="M2795 1119 c-30 -27 -35 -37 -35 -74 0 -119 155 -149 207 -41 20 42
11 79 -27 117 -41 41 -96 40 -145 -2z"/>
<path d="M1371 976 c-21 -12 -50 -50 -51 -68 0 -3 12 -20 26 -37 47 -56 124
-30 124 42 0 54 -54 88 -99 63z"/>
<path d="M2511 934 c-12 -15 -21 -34 -21 -44 0 -10 9 -29 21 -44 28 -36 80
-36 108 0 27 35 26 59 -4 89 -33 34 -77 33 -104 -1z"/>
<path d="M850 877 c-36 -18 -54 -60 -39 -89 29 -54 72 -62 113 -22 30 31 33
63 9 92 -24 27 -53 34 -83 19z"/>
<path d="M3051 864 c-28 -36 -26 -50 8 -85 36 -35 61 -37 97 -6 23 20 26 28
20 60 -12 62 -87 80 -125 31z"/>
<path d="M1145 776 c-25 -18 -24 -72 1 -91 29 -22 60 -18 83 11 26 33 26 45 1
72 -24 25 -57 28 -85 8z"/>
<path d="M2731 756 c-28 -30 -23 -68 13 -92 22 -14 27 -14 55 1 25 13 31 22
31 50 0 24 -7 39 -22 49 -31 22 -51 20 -77 -8z"/>
</g>
</svg>
